<?plantuml 1.2026.2?><svg xmlns="http://www.w3.org/2000/svg" xmlns:xlink="http://www.w3.org/1999/xlink" contentStyleType="text/css" data-diagram-type="DESCRIPTION" height="307px" preserveAspectRatio="none" style="width:375px;height:307px;background:#FFFFFF;" version="1.1" viewBox="0 0 375 307" width="375px" zoomAndPan="magnify"><title>windshield Shell Script Flow</title><defs/><g><g class="title" data-source-line="1"><text fill="#000000" font-family="Monospace" font-size="14" font-weight="bold" lengthAdjust="spacing" textLength="192.0968" x="84.7786" y="24.9659">windshield&#160;Shell&#160;Script&#160;Flow</text></g><!--entity shell_bootstrap_sh--><g class="entity" data-qualified-name="shell_bootstrap_sh" data-source-line="7" id="ent0002"><rect fill="#DBEAFE" height="77.2038" rx="2.5" ry="2.5" style="stroke:#181818;stroke-width:0.5;" width="139.3915" x="33.22" y="144.0179"/><text fill="#000000" font-family="Monospace" font-size="14" lengthAdjust="spacing" textLength="83.7197" x="43.22" y="168.9839">bootstrap.sh</text><text fill="#000000" font-family="Monospace" font-size="14" lengthAdjust="spacing" textLength="119.3915" x="43.22" y="188.0518">0&#160;local&#160;shell&#160;edges</text><text fill="#000000" font-family="Monospace" font-size="14" lengthAdjust="spacing" textLength="101.7516" x="43.22" y="207.1197">3&#160;external&#160;tools</text></g><!--entity tool_cat--><g class="entity" data-qualified-name="tool_cat" data-source-line="8" id="ent0003"><path d="M297.3582,83.102 C301.2419,72.992 308.1092,73.3969 314.8721,80.1033 C322.3559,73.411 326.7146,76.2705 330.3238,84.1983 C338.9392,87.3511 339.4273,92.8433 334.1219,99.4603 C340.0694,105.6174 339.6912,113.5145 330.2411,116.0752 C327.9183,125.8909 320.6367,126.8902 313.2782,121.8096 C305.4632,127.9014 300.2119,125.1764 297.8027,116.2422 C287.0425,114.9926 285.6303,109.5466 290.2537,100.7843 C284.544,92.7136 286.0907,84.3515 297.3582,83.102" fill="#FEF3C7" style="stroke:#181818;stroke-width:0.5;"/><text fill="#000000" font-family="Monospace" font-size="14" lengthAdjust="spacing" textLength="19.6279" x="303.44" y="104.0539">cat</text></g><!--entity tool_pre_commit--><g class="entity" data-qualified-name="tool_pre_commit" data-source-line="9" id="ent0004"><path d="M269.4172,166.5407 C272.2031,161.4444 276.779,161.8061 279.5229,166.5838 C283.6171,160.3365 288.9835,161.766 292.4536,167.2706 C295.787,161.7608 299.0573,161.3329 302.8143,166.8735 C305.7195,159.9459 310.2897,159.91 315.0378,164.9988 C318.8656,159.7367 323.2772,161.8419 325.5708,166.6099 C328.7178,161.4592 332.7637,161.2445 336.299,166.1974 C340.1536,160.3326 345.076,161.458 348.1561,167.0023 C351.2373,161.2744 355.8981,162.5786 358.8863,167.0997 C367.1148,170.911 367.7961,177.9247 360.6336,183.3871 C368.654,188.3506 368.135,194.0323 360.8024,199.1601 C357.606,204.5826 353.3013,205.325 349.3597,199.9498 C346.6879,206.6381 341.6086,206.8945 337.081,201.9002 C333.0997,207.3065 329.768,206.5676 326.0346,201.6352 C323.615,207.3461 318.3288,207.4878 315.3136,202.2166 C311.8917,206.9721 306.7744,207.3912 303.6458,201.8832 C299.6078,205.6805 294.8795,205.9652 292.7336,199.809 C289.7216,206.851 283.5641,206.0854 279.5127,200.9363 C275.9568,205.433 270.3087,205.0698 267.9447,199.5587 C259.1379,198.4097 256.1825,190.1643 261.0587,183.2411 C256.3421,173.8382 257.7616,167.7494 269.4172,166.5407" fill="#FEF3C7" style="stroke:#181818;stroke-width:0.5;"/><text fill="#000000" font-family="Monospace" font-size="14" lengthAdjust="spacing" textLength="76.8317" x="274.84" y="188.0539">pre-commit</text></g><!--entity tool_sed--><g class="entity" data-qualified-name="tool_sed" data-source-line="10" id="ent0005"><path d="M294.8602,251.7206 C299.7502,242.5532 308.0793,240.9518 315.1581,249.1643 C321.0381,241.3701 329.393,243.1097 332.8087,251.8025 C342.3983,252.5113 348.0876,257.2644 342.6004,267.4237 C347.8345,276.8702 344.3325,282.29 333.959,283.1728 C333.7007,295.9283 327.3461,300.9254 315.3327,294.7209 C304.4048,299.782 297.2218,298.3022 296.5002,284.5203 C286.8393,283.6856 283.0511,275.594 288.4039,267.5827 C283.3485,259.4557 285.7647,254.0877 294.8602,251.7206" fill="#FEF3C7" style="stroke:#181818;stroke-width:0.5;"/><text fill="#000000" font-family="Monospace" font-size="14" lengthAdjust="spacing" textLength="23.2119" x="301.65" y="272.0539">sed</text></g><g class="entity" data-qualified-name="shellGraphSummary" data-source-line="15" id="ent0009"><path d="M6,46.0679 L6,109.186 L199.8351,109.186 L199.8351,56.0679 L189.8351,46.0679 L6,46.0679" fill="#FEFFDD" style="stroke:#181818;stroke-width:0.5;"/><path d="M189.8351,46.0679 L189.8351,56.0679 L199.8351,56.0679 L189.8351,46.0679" fill="#FEFFDD" style="stroke:#181818;stroke-width:1;"/><text fill="#000000" font-family="Monospace" font-size="13" lengthAdjust="spacing" textLength="135.3041" x="12" y="64.9649">Scanned&#160;1&#160;shell&#160;script.</text><text fill="#000000" font-family="Monospace" font-size="13" lengthAdjust="spacing" textLength="172.8351" x="12" y="82.6709">Detected&#160;0&#160;local&#160;shell&#160;edges.</text><text fill="#000000" font-family="Monospace" font-size="13" lengthAdjust="spacing" textLength="156.4551" x="12" y="100.377">Detected&#160;3&#160;external&#160;tools.</text></g><!--link shell_bootstrap_sh to tool_cat--><g class="link" data-entity-1="ent0002" data-entity-2="ent0003" data-link-type="dependency" data-source-line="11" id="lnk6"><path d="M173.09,151.0579 C234.4,151.0579 313.67,151.0579 313.67,151.0579 C313.67,151.0579 313.67,143.1179 313.67,129.6079" fill="none" id="shell_bootstrap_sh-to-tool_cat" style="stroke:#181818;stroke-width:1;"/><polygon fill="#181818" points="313.67,123.6079,309.67,132.6079,313.67,128.6079,317.67,132.6079,313.67,123.6079" style="stroke:#181818;stroke-width:1;"/></g><!--link shell_bootstrap_sh to tool_pre_commit--><g class="link" data-entity-1="ent0002" data-entity-2="ent0004" data-link-type="dependency" data-source-line="12" id="lnk7"><path d="M172.96,182.6279 C201.16,182.6279 227.17,182.6279 253.49,182.6279" fill="none" id="shell_bootstrap_sh-to-tool_pre_commit" style="stroke:#181818;stroke-width:1;"/><polygon fill="#181818" points="259.49,182.6279,250.49,178.6279,254.49,182.6279,250.49,186.6279,259.49,182.6279" style="stroke:#181818;stroke-width:1;"/></g><!--link shell_bootstrap_sh to tool_sed--><g class="link" data-entity-1="ent0002" data-entity-2="ent0005" data-link-type="dependency" data-source-line="13" id="lnk8"><path d="M173.09,214.1879 C234.4,214.1879 313.67,214.1879 313.67,214.1879 C313.67,214.1879 313.67,222.1279 313.67,235.6379" fill="none" id="shell_bootstrap_sh-to-tool_sed" style="stroke:#181818;stroke-width:1;"/><polygon fill="#181818" points="313.67,241.6379,317.67,232.6379,313.67,236.6379,309.67,232.6379,313.67,241.6379" style="stroke:#181818;stroke-width:1;"/></g><?plantuml-src VP51Ry8m38Nl-HKMd46REEmsQHjqf-tIArAL9QQ9vjfLOiJuzqjXAnL27EttENv-qQY4S8ZiSuX87kg0H52x57k5YkHW27SAAf1Y6nHyJEWq2fly7RctoNQGW_LItcXXPodZHF6uitlIIbW_ROVm8IovjsxAEEbwOMIjzLYy3CzRRccAK6JKOuyWIOEO4O7PbuXcJRPVvh3b1o1nbegXuGZqBUOjhm1_51ENlefGde7DPw8PfviSOBv-tRnK6-D8zXvcpkg976QQKi2ysbIhjwT_lK-uADQxEC5AhpdthkcC_eALOjHl65aidiUjT_NBkhjOMMTO5CUxtmiHwdtNsNGqjRFCnT3ZNshvzFLBiqOjCHVXHgWJzJhTfK7sCApx1G00?></g></svg>
